<svg xmlns="http://www.w3.org/2000/svg" width="1280" height="720" viewBox="0 0 1280 720">
  <rect width="1280" height="720" fill="#101417"/>
  <text x="40" y="54" fill="#f4f7f8" font-family="Segoe UI, Arial, sans-serif" font-size="24" font-weight="700">Settings Overlay States</text>
  <g transform="translate(40 88)">
    <rect width="560" height="560" rx="6" fill="#14191d" stroke="#ffffff" stroke-opacity="0.26"/>
    <rect width="560" height="42" rx="6" fill="#181e22"/>
    <text x="16" y="27" fill="#ffffff" font-family="Segoe UI, Arial, sans-serif" font-size="16" font-weight="700">Settings</text>
    <g transform="translate(12 54)">
      <rect width="536" height="494" fill="#14191d"/>
      <rect x="0" y="0" width="86" height="34" fill="#263038"/>
      <rect x="88" y="0" width="106" height="34" fill="#1b2227"/>
      <rect x="196" y="0" width="124" height="34" fill="#1b2227"/>
      <rect x="322" y="0" width="90" height="34" fill="#1b2227"/>
      <rect x="414" y="0" width="122" height="34" fill="#1b2227"/>
      <text x="18" y="22" fill="#ffffff" font-family="Segoe UI, Arial, sans-serif" font-size="13">General</text>
      <text x="104" y="22" fill="#cfd8de" font-family="Segoe UI, Arial, sans-serif" font-size="13">Status</text>
      <text x="212" y="22" fill="#cfd8de" font-family="Segoe UI, Arial, sans-serif" font-size="13">Fuel</text>
      <text x="338" y="22" fill="#cfd8de" font-family="Segoe UI, Arial, sans-serif" font-size="13">Radar</text>
      <text x="430" y="22" fill="#cfd8de" font-family="Segoe UI, Arial, sans-serif" font-size="13">Gap</text>
      <rect y="34" width="536" height="460" fill="#171d21"/>
      <text x="20" y="78" fill="#ffffff" font-family="Segoe UI, Arial, sans-serif" font-size="16" font-weight="700">General</text>
      <text x="24" y="128" fill="#d6dce1" font-family="Segoe UI, Arial, sans-serif" font-size="14">Font family</text>
      <rect x="160" y="106" width="250" height="30" rx="4" fill="#263038" stroke="#58636a"/>
      <text x="174" y="127" fill="#ffffff" font-family="Segoe UI, Arial, sans-serif" font-size="14">Segoe UI</text>
      <path d="M390 118 l6 7 l6 -7" fill="none" stroke="#d6dce1" stroke-width="2"/>
    </g>
  </g>
  <g transform="translate(680 88)">
    <rect width="560" height="560" rx="6" fill="#14191d" stroke="#ffffff" stroke-opacity="0.26"/>
    <rect width="560" height="42" rx="6" fill="#181e22"/>
    <text x="16" y="27" fill="#ffffff" font-family="Segoe UI, Arial, sans-serif" font-size="16" font-weight="700">Settings</text>
    <g transform="translate(12 54)">
      <rect width="536" height="494" fill="#14191d"/>
      <rect x="0" y="0" width="86" height="34" fill="#1b2227"/>
      <rect x="88" y="0" width="104" height="34" fill="#1b2227"/>
      <rect x="194" y="0" width="86" height="34" fill="#1b2227"/>
      <rect x="282" y="0" width="86" height="34" fill="#1b2227"/>
      <rect x="370" y="0" width="84" height="34" fill="#263038"/>
      <rect x="456" y="0" width="80" height="34" fill="#1b2227"/>
      <text x="18" y="22" fill="#cfd8de" font-family="Segoe UI, Arial, sans-serif" font-size="13">General</text>
      <text x="104" y="22" fill="#cfd8de" font-family="Segoe UI, Arial, sans-serif" font-size="13">Fuel</text>
      <text x="210" y="22" fill="#cfd8de" font-family="Segoe UI, Arial, sans-serif" font-size="13">Radar</text>
      <text x="298" y="22" fill="#cfd8de" font-family="Segoe UI, Arial, sans-serif" font-size="13">Gap</text>
      <text x="386" y="22" fill="#ffffff" font-family="Segoe UI, Arial, sans-serif" font-size="13">Bridge</text>
      <text x="472" y="22" fill="#cfd8de" font-family="Segoe UI, Arial, sans-serif" font-size="13">Analysis</text>
      <rect y="34" width="536" height="460" fill="#171d21"/>
      <text x="20" y="78" fill="#ffffff" font-family="Segoe UI, Arial, sans-serif" font-size="16" font-weight="700">Overlay Bridge</text>
      <text x="24" y="128" fill="#d6dce1" font-family="Segoe UI, Arial, sans-serif" font-size="14">Status</text>
      <rect x="160" y="106" width="260" height="30" rx="4" fill="#263038"/>
      <text x="174" y="127" fill="#ffffff" font-family="Segoe UI, Arial, sans-serif" font-size="14">Reserved for post-v1.0</text>
      <text x="24" y="178" fill="#d6dce1" font-family="Segoe UI, Arial, sans-serif" font-size="14">Port</text>
      <rect x="160" y="156" width="260" height="30" rx="4" fill="#263038"/>
      <text x="174" y="177" fill="#ffffff" font-family="Segoe UI, Arial, sans-serif" font-size="14">Configured in appsettings</text>
      <text x="24" y="228" fill="#d6dce1" font-family="Segoe UI, Arial, sans-serif" font-size="14">Clients</text>
      <rect x="160" y="206" width="260" height="30" rx="4" fill="#263038"/>
      <text x="174" y="227" fill="#ffffff" font-family="Segoe UI, Arial, sans-serif" font-size="14">Not tracked yet</text>
      <rect x="24" y="286" width="488" height="88" rx="4" fill="#181e22" stroke="#48545c"/>
      <text x="44" y="338" fill="#819199" font-family="Segoe UI, Arial, sans-serif" font-size="14">Bridge controls will live here after v1.0.</text>
    </g>
  </g>
</svg>
